<svg xmlns="http://www.w3.org/2000/svg" width="56" shape-rendering="geometricPrecision" text-rendering="geometricPrecision" image-rendering="optimizeQuality" fill-rule="evenodd" clip-rule="evenodd"><defs><style>.fil0{fill:#000}</style></defs><path class="fil0" d="M0 311v7c0 1 0 0 1 2l1 1c3 7 9 7 18 12 26 11 50 19 77 27 103 29 227 21 323-27 17-8 12-5 19-15v-7l-22-50c-2-3-5-7-10-8-7-1-10 1-14 3-5 3-20 11-25 11-3-3-12-54-14-62-2-12-12-55-12-63 7 4 13 12 16 21 3 11 2 19 15 21 6 0 30-1 35-2 9-5 8-15 8-28 0-16 1-140-1-144-3-11-13-11-26-9-42 4-93 19-125 46-22 18-23 21-37 44-29 1-59 0-88 0-83 0-45-5-81 41-2 3-2 3-5 5-3 4-7 7-13 9-19 7-9 26 11 35 20 10 23 6 35 7l-12 79c-24-7-39-25-50-5-4 8-8 17-12 25l-6 12-6 12zM360 72c-12 6-4 26 9 20 11-5 5-27-9-20zM153 290c8 4 62 7 69 7 22 0 47-2 69-6 0-4-17-42-20-49h-96c-2 3-21 44-22 48zm16-70c-11 3-13 10-17 19l-23 50c-5 11 1 19 11 21 44 8 87 10 132 5 10-1 22-2 31-4 10-3 17-10 11-22-3-8-7-17-10-25-4-8-7-18-11-26-3-9-6-17-17-18-8-1-102-1-107 0zM59 161c8 5 17 7 27 4 5-1 9-3 14-2s8 4 9 8c2 6-6 50-8 60-1 10-3 19-4 29-1 9-2 22-7 28-7 7-16 3-25-1l-24-10c-2 2-15 29-16 34 1 1 2 1 4 2l16 7c89 37 188 46 282 23 21-5 49-13 68-22 5-2 17-7 20-10l-15-34c-5 1-12 6-17 8-9 4-26 14-33 1-3-5-4-13-5-19l-25-119c-1-5-4-17-3-21 1-7 6-11 13-11 10-1 25 8 32 15 7 6 15 18 18 31h14c2-7 0-58 0-70 0-23 1-46 0-70-14 0-36 5-50 9-27 6-58 23-77 42-30 32-15 39-49 39H100c-9 0-4 3-13 17-17 27-24 27-28 32z"/></svg>